<?xml version="1.0" standalone="no"?>
<!DOCTYPE svg PUBLIC "-//W3C//DTD SVG 20010904//EN"
 "http://www.w3.org/TR/2001/REC-SVG-20010904/DTD/svg10.dtd">
<svg version="1.0" xmlns="http://www.w3.org/2000/svg"
 width="260.000000pt" height="260.000000pt" viewBox="0 0 260.000000 260.000000"
 preserveAspectRatio="xMidYMid meet">
<metadata>
Created by potrace 1.11, written by Peter Selinger 2001-2013
</metadata>
<g transform="translate(0.000000,260.000000) scale(0.100000,-0.100000)"
fill="#000000" stroke="none">
<path d="M818 2340 l-33 -28 0 -998 c1 -946 1 -1000 19 -1026 45 -67 208 -56
232 15 4 12 8 108 9 212 l1 190 133 130 c73 72 138 130 144 130 6 0 16 -9 22
-20 12 -24 47 -78 55 -85 15 -14 110 -160 110 -168 0 -6 4 -12 8 -14 5 -1 69
-92 143 -202 74 -109 144 -205 155 -213 36 -23 66 -24 110 -3 56 28 85 61 91
107 5 36 -2 49 -102 198 -242 359 -359 531 -377 554 -10 13 -18 29 -18 36 0
11 177 190 403 408 88 85 105 120 82 171 -33 73 -109 119 -164 98 -19 -7 -300
-275 -643 -614 -76 -76 -142 -138 -146 -138 -4 0 -7 268 -7 595 0 327 -3 608
-8 624 -12 46 -52 68 -124 69 -53 0 -66 -4 -95 -28z"/>
</g>
</svg>
